<?xml version="1.0" standalone="no"?>
<!DOCTYPE svg PUBLIC "-//W3C//DTD SVG 20010904//EN"
 "http://www.w3.org/TR/2001/REC-SVG-20010904/DTD/svg10.dtd">
<svg version="1.0" xmlns="http://www.w3.org/2000/svg"
 width="3873.000000pt" height="3873.000000pt" viewBox="0 0 3873.000000 3873.000000"
 preserveAspectRatio="xMidYMid meet">

<g transform="translate(0.000000,3873.000000) scale(0.100000,-0.100000)"
fill="#000000" stroke="none">
<path d="M11130 34164 c-25 -2 -115 -8 -200 -14 -1811 -126 -3577 -852 -4973
-2048 -263 -225 -578 -532 -798 -777 -686 -767 -1214 -1615 -1590 -2555 -67
-169 -76 -192 -154 -420 -235 -681 -401 -1431 -479 -2160 -65 -604 -73 -1316
-20 -1930 165 -1925 915 -3799 2299 -5740 1180 -1654 2784 -3360 5530 -5880
487 -447 913 -834 1495 -1360 1779 -1606 2381 -2154 3210 -2919 518 -479 1231
-1150 1605 -1511 72 -70 267 -258 435 -420 168 -161 658 -647 1090 -1079 l785
-786 795 796 c1093 1094 2040 2004 3190 3064 179 164 381 351 450 415 316 293
1083 989 2740 2486 2728 2464 4078 3769 5290 5114 2343 2601 3576 4887 3920
7269 73 505 95 831 95 1411 0 473 -7 628 -46 1015 -100 995 -371 2043 -754
2915 -690 1569 -1879 2932 -3345 3836 -1191 734 -2465 1148 -3895 1266 -213
17 -1025 17 -1280 0 -1047 -72 -1898 -232 -2715 -509 -1778 -604 -3126 -1746
-3909 -3311 -248 -496 -444 -1060 -522 -1507 -12 -67 -13 -68 -20 -35 -5 19
-22 100 -39 180 -180 831 -601 1711 -1170 2440 -418 536 -977 1050 -1543 1417
-1185 769 -2558 1189 -4314 1319 -192 14 -1049 27 -1163 18z"/>
</g>
</svg>
